<svg xmlns="http://www.w3.org/2000/svg" width="24" height="24" viewBox="0 0 24 24">
  <g id="ic_Lead_Gen_normal" data-name="ic_Lead Gen_normal" transform="translate(-58 -22)">
    <g id="ic_welcom" transform="translate(35 -17)">
      <rect id="Rectangle_741" data-name="Rectangle 741" width="24" height="24" transform="translate(23 39)" fill="rgba(216,130,130,0)"/>
      <g id="Group_2775" data-name="Group 2775" transform="translate(0.997 -0.5)">
        <g id="Group_1071" data-name="Group 1071" transform="translate(23.003 51.078)">
          <g id="Group_1070" data-name="Group 1070" transform="translate(0)">
            <path id="Path_2094" data-name="Path 2094" d="M22.237,236.7a2.017,2.017,0,0,0-2.777.168l-1.977,2.122a2.021,2.021,0,0,0-1.927-1.419H12.029c-.268,0-.357-.1-.822-.46a4.717,4.717,0,0,0-6.2.015l-1.3,1.141a2.009,2.009,0,0,0-1.849-.023l-1.487.743a.673.673,0,0,0-.3.9l4.035,8.07a.673.673,0,0,0,.9.3L6.5,247.52a2.016,2.016,0,0,0,1.114-1.875h7.947a4.73,4.73,0,0,0,3.766-1.883l3.228-4.3A2.012,2.012,0,0,0,22.237,236.7ZM5.894,246.317l-.885.443-3.434-6.867.886-.443a.672.672,0,0,1,.9.3l2.832,5.664A.672.672,0,0,1,5.894,246.317Zm15.581-7.667-3.228,4.3a3.378,3.378,0,0,1-2.69,1.345H7.14l-2.52-5.04,1.273-1.12a3.371,3.371,0,0,1,4.443,0,2.38,2.38,0,0,0,1.693.781h3.527a.672.672,0,0,1,0,1.345H12.122a.672.672,0,1,0,0,1.345h3.885a2.023,2.023,0,0,0,1.476-.642l2.961-3.178a.672.672,0,0,1,1.031.861Z" transform="translate(0 -235.959)" fill="#333"/>
          </g>
        </g>
        <g id="Group_1073" data-name="Group 1073" transform="translate(31.118 40.5)">
          <g id="Group_1072" data-name="Group 1072" transform="translate(0 0)">
            <path id="Path_2095" data-name="Path 2095" d="M187.019,4.6a2.679,2.679,0,0,0,.744-1.854,2.726,2.726,0,0,0-2.69-2.735,2.771,2.771,0,0,0-2.735,2.735,2.64,2.64,0,0,0,.769,1.86,4.1,4.1,0,0,0-2.114,3.565v.672a.673.673,0,0,0,.672.672h6.77a.673.673,0,0,0,.672-.672V8.172A4.1,4.1,0,0,0,187.019,4.6Zm-1.946-3.244a1.386,1.386,0,0,1,1.345,1.39,1.347,1.347,0,0,1-1.345,1.345,1.386,1.386,0,0,1-1.39-1.345A1.426,1.426,0,0,1,185.074,1.358Zm-2.735,6.814a2.771,2.771,0,0,1,2.735-2.735,2.716,2.716,0,0,1,2.69,2.735Z" transform="translate(-180.994 -0.013)" fill="#333"/>
          </g>
        </g>
      </g>
    </g>
  </g>
</svg>
