<svg xmlns="http://www.w3.org/2000/svg" width="24.002" height="24" viewBox="0 0 24.002 24">
    <g id="ic_welcom_active" transform="translate(-23 -38)">
        <rect id="Rectangle_741" data-name="Rectangle 741" width="24" height="24" transform="translate(23 38)"
              fill="rgba(216,130,130,0)"/>
        <path id="Union_17" data-name="Union 17"
              d="M4154.333-7811.667a12.015,12.015,0,0,1,12-12,12.015,12.015,0,0,1,12,12,12.013,12.013,0,0,1-12,12A12.013,12.013,0,0,1,4154.333-7811.667Zm1.3,0a10.644,10.644,0,0,0,1.219,4.956,10.736,10.736,0,0,0,1.942,2.629,10.665,10.665,0,0,0,7.542,3.118,10.715,10.715,0,0,0,10.7-10.7,10.657,10.657,0,0,0-1.046-4.614,10.7,10.7,0,0,0-2.4-3.242,10.65,10.65,0,0,0-7.259-2.847A10.714,10.714,0,0,0,4155.63-7811.667Zm10.03,5.293a5.985,5.985,0,0,1-4.326-3.089l.872-.646a4.947,4.947,0,0,0,3.572,2.553,4.771,4.771,0,0,0,4.716-2.553l.872.646a5.875,5.875,0,0,1-5.034,3.134A5.163,5.163,0,0,1,4165.66-7806.373Zm4.146-8.622a1.189,1.189,0,0,1,1.19-1.19,1.19,1.19,0,0,1,1.19,1.19,1.19,1.19,0,0,1-1.19,1.189A1.189,1.189,0,0,1,4169.807-7814.995Zm-9.483,0a1.19,1.19,0,0,1,1.19-1.19,1.189,1.189,0,0,1,1.19,1.19,1.189,1.189,0,0,1-1.19,1.189A1.19,1.19,0,0,1,4160.323-7814.995Z"
              transform="translate(-4131.332 7861.667)" fill="#49bc6b"/>
    </g>
</svg>
