<svg xmlns="http://www.w3.org/2000/svg" width="24.043" height="24" viewBox="0 0 24.043 24">
    <g id="ic_Manage_Subscriptions_normal" data-name="ic_Manage Subscriptions_normal" transform="translate(-58 -21)">
        <g id="ic_welcom" transform="translate(35 -17)">
            <rect id="Rectangle_741" data-name="Rectangle 741" width="24" height="24" transform="translate(23 38)"
                  fill="rgba(216,130,130,0)"/>
            <path id="Union_18" data-name="Union 18"
                  d="M4144.5-7752.215a2.567,2.567,0,0,1-2.5-2.622v-11.541a2.569,2.569,0,0,1,2.5-2.623h19.033a2.57,2.57,0,0,1,2.506,2.623v11.541a2.569,2.569,0,0,1-2.506,2.622Zm-1.5-2.622a1.54,1.54,0,0,0,1.5,1.573h19.033a1.541,1.541,0,0,0,1.5-1.573v-6.818H4143Zm0-7.867h22.038v-2.1H4143Zm22.038-3.149v-.524a1.542,1.542,0,0,0-1.5-1.574H4144.5a1.54,1.54,0,0,0-1.5,1.574v.524Zm-4.769,10.492a1.575,1.575,0,0,1-1.573-1.574v-1.049a1.575,1.575,0,0,1,1.573-1.574h1.049a1.576,1.576,0,0,1,1.574,1.574v1.049a1.576,1.576,0,0,1-1.574,1.574Zm-.524-2.623v1.049a.525.525,0,0,0,.524.524h1.049a.523.523,0,0,0,.524-.524v-1.049a.525.525,0,0,0-.524-.524h-1.049A.526.526,0,0,0,4159.747-7757.984Zm-14.075,2.623a.527.527,0,0,1-.525-.525.525.525,0,0,1,.525-.524h6.3a.525.525,0,0,1,.524.524.526.526,0,0,1-.524.525Zm0-2.1a.526.526,0,0,1-.525-.524.525.525,0,0,1,.525-.524h6.3a.525.525,0,0,1,.524.524.526.526,0,0,1-.524.524Z"
                  transform="translate(-4119 7811)" fill="#333"/>
        </g>
    </g>
</svg>
