<svg xmlns="http://www.w3.org/2000/svg" width="24" height="24.259" viewBox="0 0 24 24.259">
  <g id="ic_Sample_CTAs_normal" data-name="ic_Sample CTAs_normal" transform="translate(-58 -21.999)">
    <g id="ic_welcom" transform="translate(35 -17)">
      <rect id="Rectangle_741" data-name="Rectangle 741" width="24" height="24" transform="translate(23 39)" fill="rgba(216,130,130,0)"/>
      <path id="Union_19" data-name="Union 19" d="M3992.49-7821.742a.487.487,0,0,1-.5-.475v-1.983l-.018-.016a13.914,13.914,0,0,1-2.424-3.05,13.427,13.427,0,0,1-1.453-3.566,3.417,3.417,0,0,1,1.534-3.694l1.363-.863v-6.823a1.948,1.948,0,0,1,1.995-1.894,1.946,1.946,0,0,1,1.995,1.894v4.33a2.043,2.043,0,0,1,1-.254,1.993,1.993,0,0,1,1.883,1.268,2.051,2.051,0,0,1,1.108-.321,1.992,1.992,0,0,1,1.883,1.268,2.056,2.056,0,0,1,1.111-.321,1.95,1.95,0,0,1,1.995,1.9v3.69a11.338,11.338,0,0,1-1.995,6.4v2.038a.489.489,0,0,1-.5.475Zm-2.306-11.994a2.484,2.484,0,0,0-1.116,2.688,12.533,12.533,0,0,0,1.353,3.322,13.091,13.091,0,0,0,2.422,3,.469.469,0,0,1,.146.337v1.705h7.979v-1.705a.46.46,0,0,1,.084-.264,10.434,10.434,0,0,0,1.91-6v-3.69a.974.974,0,0,0-1-.949.975.975,0,0,0-1,.949v1.419a.487.487,0,0,1-.5.475.487.487,0,0,1-.5-.475v-2.369a.976.976,0,0,0-1-.947.974.974,0,0,0-1,.947v2.369a.488.488,0,0,1-.5.475.488.488,0,0,1-.5-.475v-3.316a.974.974,0,0,0-1-.947.973.973,0,0,0-1,.947v3.316a.487.487,0,0,1-.5.475.487.487,0,0,1-.5-.475v-9.286a.973.973,0,0,0-1-.947.974.974,0,0,0-1,.947v11.183a.487.487,0,0,1-.5.472.485.485,0,0,1-.5-.472v-3.222Zm5.83-8.473a2.943,2.943,0,0,0-3.028-2.843,2.943,2.943,0,0,0-3.029,2.843.489.489,0,0,1-.5.473.489.489,0,0,1-.5-.473,3.925,3.925,0,0,1,4.037-3.792,3.926,3.926,0,0,1,4.039,3.792.491.491,0,0,1-.5.473A.491.491,0,0,1,3996.015-7842.208Z" transform="translate(-3961 7885)" fill="#333"/>
    </g>
  </g>
</svg>
