<svg xmlns="http://www.w3.org/2000/svg" width="24" height="24" viewBox="0 0 24 24">
  <g id="ic_Website_Integration_normal" data-name="ic_Website Integration_normal" transform="translate(-58 -21)">
    <g id="ic_welcom" transform="translate(35 -17)">
      <rect id="Rectangle_741" data-name="Rectangle 741" width="24" height="24" transform="translate(23 38)" fill="rgba(216,130,130,0)"/>
      <g id="Group_2774" data-name="Group 2774" transform="translate(0.995 -106.5)">
        <path id="Union_14" data-name="Union 14" d="M-6798.243-7836a1.76,1.76,0,0,1-1.757-1.757v-16.484a1.76,1.76,0,0,1,1.757-1.759h16.484a1.76,1.76,0,0,1,1.759,1.759v16.484a1.76,1.76,0,0,1-1.759,1.757Zm-.585-1.757a.587.587,0,0,0,.585.585h16.484a.587.587,0,0,0,.585-.585V-7850.1h-17.655Zm0-16.484v2.967h17.655v-2.967a.587.587,0,0,0-.585-.588h-16.484A.587.587,0,0,0-6798.828-7854.241Zm14.515,14.726a.586.586,0,0,1-.585-.585.586.586,0,0,1,.585-.585h2.344a.586.586,0,0,1,.585.585.586.586,0,0,1-.585.585Zm0-2.344a.586.586,0,0,1-.585-.585.586.586,0,0,1,.585-.585h2.344a.586.586,0,0,1,.585.585.586.586,0,0,1-.585.585Zm0-2.344a.586.586,0,0,1-.585-.585.586.586,0,0,1,.585-.585h2.344a.586.586,0,0,1,.585.585.586.586,0,0,1-.585.585Zm0-2.342a.586.586,0,0,1-.585-.585.586.586,0,0,1,.585-.587h2.344a.586.586,0,0,1,.585.587.586.586,0,0,1-.585.585Zm-2.342-5.938a.586.586,0,0,1-.585-.585.586.586,0,0,1,.585-.585h4.687a.586.586,0,0,1,.585.585.586.586,0,0,1-.585.585Zm-5.274-.585a.586.586,0,0,1,.585-.585.586.586,0,0,1,.585.585.586.586,0,0,1-.585.585A.586.586,0,0,1-6791.93-7853.07Zm-2.344,0a.586.586,0,0,1,.585-.585.586.586,0,0,1,.588.585.586.586,0,0,1-.588.585A.586.586,0,0,1-6794.274-7853.07Zm-2.344,0a.586.586,0,0,1,.587-.585.586.586,0,0,1,.586.585.586.586,0,0,1-.586.585A.586.586,0,0,1-6796.618-7853.07Z" transform="translate(6824.005 8002.5)" fill="#333"/>
        <g id="Rectangle_196" data-name="Rectangle 196" transform="translate(28.005 154.5)" fill="rgba(255,255,255,0)" stroke="#333" stroke-width="1">
          <rect width="9" height="9" rx="1" stroke="none"/>
          <rect x="0.5" y="0.5" width="8" height="8" rx="0.5" fill="none"/>
        </g>
      </g>
    </g>
  </g>
</svg>
