<svg xmlns="http://www.w3.org/2000/svg" width="88" height="54" viewBox="0 0 88 54">
    <g id="ic_american_express" data-name="ic_american express" transform="translate(-405 -254)">
        <rect id="Rectangle_732" data-name="Rectangle 732" width="88" height="54" rx="4" transform="translate(405 254)"
              fill="#2953c7"/>
        <g id="Group_2703" data-name="Group 2703" transform="translate(376.252 84.802)">
            <path id="Path_3439" data-name="Path 3439" d="M74.59,204.5h2.529l-1.264-3.218Z"
                  transform="translate(-31.587 -15.092)" fill="#fff"/>
            <path id="Path_3440" data-name="Path 3440"
                  d="M155.946,286.107V287.6H160.2v1.609h-4.253v1.724h4.712l2.184-2.414-2.069-2.414Z"
                  transform="translate(-99.495 -85.899)" fill="#fff"/>
            <path id="Path_3441" data-name="Path 3441" d="M349.932,201.278l-1.379,3.218H351.2Z"
                  transform="translate(-260.266 -15.092)" fill="#fff"/>
            <path id="Path_3442" data-name="Path 3442" d="M215.257,287.792v-6.551l-2.989,3.218Z"
                  transform="translate(-146.508 -81.837)" fill="#fff"/>
            <path id="Path_3443" data-name="Path 3443"
                  d="M245.845,287.142a1.16,1.16,0,0,0-1.265-1.035h-2.413v2.069H244.7C245.385,288.176,245.845,287.831,245.845,287.142Z"
                  transform="translate(-171.465 -85.899)" fill="#fff"/>
            <path id="Path_3444" data-name="Path 3444"
                  d="M296.839,288.529a.9.9,0,0,0,.345-.8.639.639,0,0,0-.345-.8,2.235,2.235,0,0,0-.919-.115h-2.3v1.839h2.3A2.235,2.235,0,0,0,296.839,288.529Z"
                  transform="translate(-214.414 -86.481)" fill="#fff"/>
            <path id="Path_3445" data-name="Path 3445"
                  d="M98.976,183.2v1.379l-.689-1.379h-5.4v1.379L92.2,183.2H84.839a7,7,0,0,0-3.218.69v-.69H76.449v.69a3.315,3.315,0,0,0-2.184-.69h-18.5L54.5,186.071,53.232,183.2H47.371v1.379L46.8,183.2H41.739l-2.3,5.4L36.8,194.461l-.049.115h5.984l.042-.115.69-1.724h1.494l.69,1.839h6.666V193.2l.575,1.379H56.22l.574-1.379v1.379H72.771v-2.989H73c.23,0,.23,0,.23.345v2.528h8.275v-.69a6.875,6.875,0,0,0,3.1.69h3.449l.69-1.839h1.609l.69,1.839h6.666v-1.724l1.035,1.724h5.4V183.2H98.976Zm-38.962,9.655H58.174v-6.322l-.115.264v0l-2.674,6.061H53.692l-2.758-6.322v6.322H47.026l-.8-1.724H42.313l-.8,1.724h-2.02l3.4-8.046h2.873l3.218,7.7v-7.7h3.045l.054.115h0l1.45,3.156,1.041,2.365.037-.119,2.3-5.517h3.1v8.045Zm7.931-6.322H63.462v1.494h4.368v1.609H63.462v1.61h4.483v1.724H61.508v-8.16h6.436v1.724Zm8.2,2.964.01.007a1.321,1.321,0,0,1,.112.136,2.21,2.21,0,0,1,.407,1.347l0,.033c0,.006,0,.012,0,.018s0,.006,0,.01c0,.063,0,.128,0,.2v1.609H74.955v-.92a2.735,2.735,0,0,0-.345-1.609,1.046,1.046,0,0,0-.338-.231,2.294,2.294,0,0,0-1.041-.113H71.162v2.873H69.208v-8.046h4.368a4.407,4.407,0,0,1,2.3.345,1.942,1.942,0,0,1,.916,1.787,2.283,2.283,0,0,1-1.376,2.121A1.539,1.539,0,0,1,76.142,189.495Zm3.87,3.358H78.058v-8.046h1.954Zm22.412,0H99.9l-3.678-6.092v5.057l-.012-.012v1.052H94.264v0H92.31l-.69-1.724H87.6l-.69,1.839H84.724a3.455,3.455,0,0,1-3.792-4.022,4.712,4.712,0,0,1,1.034-3.219,3.62,3.62,0,0,1,2.873-.919h1.839v1.724H84.839a2.119,2.119,0,0,0-1.494.46,2.7,2.7,0,0,0-.574,1.839,2.5,2.5,0,0,0,.574,1.954,1.833,1.833,0,0,0,1.38.46h.8l2.643-6.321h2.874l3.219,7.7v-7.7h2.873l3.332,5.632v-5.632h1.955v7.93h0Z"
                  fill="#fff"/>
            <path id="Path_3446" data-name="Path 3446"
                  d="M248.287,204.991a.618.618,0,0,0,.09-.123,1.242,1.242,0,0,0,.159-.867.643.643,0,0,0-.017-.1c0-.009,0-.017,0-.027h0a.645.645,0,0,0-.349-.391,2.251,2.251,0,0,0-.92-.115h-2.3V205.2h2.3a2.239,2.239,0,0,0,.92-.115.434.434,0,0,0,.095-.068h0Z"
                  transform="translate(-173.784 -16.833)" fill="#fff"/>
            <path id="Path_3447" data-name="Path 3447"
                  d="M190.128,272.253a4.4,4.4,0,0,0-.574-2.184V264.9h-.005v-.345h-5.535a3.271,3.271,0,0,0-1.586.689v-.689H177.14a3.651,3.651,0,0,0-2.3.689v-.689h-9.424v.689a4.446,4.446,0,0,0-2.529-.689h-6.207v.689a4.366,4.366,0,0,0-2.644-.689h-6.9l-1.609,1.724-1.494-1.724H133.7v11.609h10.114l1.662-1.662,1.441,1.662h6.437v-2.643h.575a6.982,6.982,0,0,0,2.643-.345v3.1h5.172v-2.988h.229c.345,0,.345,0,.345.345v2.644h15.631a4.5,4.5,0,0,0,2.644-.69v.69h4.943a5.162,5.162,0,0,0,2.759-.575,3.86,3.86,0,0,0,1.824-3.1c0-.04.01-.079.014-.119l-.007-.006C190.125,272.4,190.128,272.328,190.128,272.253Zm-36.2-.689h-2.3v2.988h-3.778l-2.2-2.529-.008.008-.107-.124L143,274.552h-7.356v-8.045h7.471l2.041,2.236.429.468.058-.06,2.414-2.643h6.091c1.182,0,2.506.292,3.008,1.495a3.25,3.25,0,0,1,.1.8C157.256,271.1,155.647,271.564,153.924,271.564Zm11.493-.115a2.609,2.609,0,0,1,.345,1.494v1.609h-1.954v-1.034a2.565,2.565,0,0,0-.345-1.61c-.229-.344-.69-.344-1.379-.344h-2.069v2.988h-1.954v-8.16h4.367a4.636,4.636,0,0,1,2.3.344,2.034,2.034,0,0,1,1.034,1.839,2.289,2.289,0,0,1-1.379,2.184A1.958,1.958,0,0,1,165.417,271.449Zm7.931-3.334h-4.483v1.494h4.368v1.609h-4.368v1.609h4.483v1.724h-6.436v-8.16h6.436Zm4.827,6.437H174.5v-1.724h3.678a.971.971,0,0,0,.8-.23.835.835,0,0,0,0-1.149.975.975,0,0,0-.69-.23c-1.839-.115-4.023,0-4.023-2.528,0-1.149.69-2.414,2.759-2.414h3.793v1.954h-3.563a1.706,1.706,0,0,0-.8.115c-.229.115-.229.345-.229.575,0,.345.229.46.459.574a1.456,1.456,0,0,0,.69.115H178.4a2.925,2.925,0,0,1,2.184.69,2.379,2.379,0,0,1,.575,1.724C181.163,273.747,180.128,274.552,178.175,274.552Zm9.884-.805a3.349,3.349,0,0,1-2.414.805h-3.677v-1.724h3.677a.97.97,0,0,0,.8-.23.833.833,0,0,0,0-1.149.972.972,0,0,0-.69-.23c-1.838-.115-4.023,0-4.023-2.528a2.349,2.349,0,0,1,2.166-2.372,4.28,4.28,0,0,1,.592-.042h3.793v1.954h-3.563a1.7,1.7,0,0,0-.8.115.876.876,0,0,0-.231.575c0,.345.115.46.46.574a1.453,1.453,0,0,0,.69.115h1.034a3.589,3.589,0,0,1,1.23.184,2.475,2.475,0,0,1,1.608,1.817,2.581,2.581,0,0,1,.036.412A2.338,2.338,0,0,1,188.059,273.747Z"
                  transform="translate(-80.922 -67.907)" fill="#fff"/>
        </g>
    </g>
</svg>
