<svg xmlns="http://www.w3.org/2000/svg" width="92.361" height="57.898" viewBox="0 0 92.361 57.898">
    <defs>
        <clipPath id="clip-path">
            <path id="Path_3436" data-name="Path 3436"
                  d="M2705.1,8085s67.3-2.7,79.241-24.547c2.286,27.684,0,28.445,0,28.445H2705.1Z"
                  transform="translate(-2065 -7786)" fill="#f26e21"/>
        </clipPath>
    </defs>
    <g id="ic_discover" transform="translate(-628 -245)">
        <g id="Group_2695" data-name="Group 2695" transform="translate(223 -9)">
            <rect id="Rectangle_732" data-name="Rectangle 732" width="88" height="54" rx="4"
                  transform="translate(405 254)" fill="#f3f2f2"/>
        </g>
        <g id="Group_2702" data-name="Group 2702" transform="translate(-4.179 48)">
            <circle id="Ellipse_110" data-name="Ellipse 110" cx="5.867" cy="5.867" r="5.867"
                    transform="translate(672.69 218)" fill="#f26e21"/>
            <g id="Group_2701" data-name="Group 2701" transform="translate(641.179 218.059)">
                <path id="Path_3429" data-name="Path 3429"
                      d="M59.471,201.1a4.173,4.173,0,0,1-3,.887h-.588V194.62h.588a4.089,4.089,0,0,1,3,.9,3.726,3.726,0,0,1,1.21,2.771,3.8,3.8,0,0,1-1.21,2.806Zm-2.561-8.365H53.691v11.137h3.2a5.88,5.88,0,0,0,4.006-1.286,5.582,5.582,0,0,0,2.038-4.278c0-3.288-2.477-5.573-6.028-5.573"
                      transform="translate(-53.691 -192.482)" fill="#0b161f"/>
                <path id="Path_3430" data-name="Path 3430" d="M108.2,203.871h2.188V192.734H108.2v11.137"
                      transform="translate(-97.944 -192.482)" fill="#0b161f"/>
                <path id="Path_3431" data-name="Path 3431"
                      d="M128.756,196.207c-1.315-.484-1.7-.8-1.7-1.4,0-.7.689-1.236,1.633-1.236a2.286,2.286,0,0,1,1.77.9l1.143-1.484a4.93,4.93,0,0,0-3.3-1.236,3.288,3.288,0,0,0-3.5,3.187c0,1.538.706,2.323,2.762,3.059a8.532,8.532,0,0,1,1.515.634,1.332,1.332,0,0,1,.658,1.151,1.6,1.6,0,0,1-1.7,1.57,2.593,2.593,0,0,1-2.391-1.486l-1.412,1.354a4.377,4.377,0,0,0,3.889,2.121,3.611,3.611,0,0,0,3.872-3.658c0-1.771-.738-2.573-3.231-3.476"
                      transform="translate(-110.954 -191.682)" fill="#0b161f"/>
                <path id="Path_3432" data-name="Path 3432"
                      d="M169.143,197.22a5.794,5.794,0,0,0,5.928,5.815,6.1,6.1,0,0,0,2.745-.65v-2.558a3.516,3.516,0,0,1-2.645,1.219A3.655,3.655,0,0,1,171.4,197.2a3.718,3.718,0,0,1,3.672-3.824,3.676,3.676,0,0,1,2.745,1.253v-2.556a5.63,5.63,0,0,0-2.7-.682,5.882,5.882,0,0,0-5.978,5.825"
                      transform="translate(-147.419 -191.395)" fill="#0b161f"/>
                <path id="Path_3433" data-name="Path 3433"
                      d="M286.3,200.215l-3-7.481h-2.391l4.767,11.422h1.177l4.851-11.422h-2.375l-3.032,7.481"
                      transform="translate(-238.161 -192.482)" fill="#0b161f"/>
                <path id="Path_3434" data-name="Path 3434"
                      d="M343.576,203.871h6.213v-1.885h-4.024v-3.009h3.87v-1.885h-3.87V194.62h4.024v-1.886h-6.213v11.137"
                      transform="translate(-289.031 -192.482)" fill="#0b161f"/>
                <path id="Path_3435" data-name="Path 3435"
                      d="M387.108,197.86h-.638v-3.375h.672c1.367,0,2.108.57,2.108,1.654,0,1.118-.741,1.721-2.142,1.721Zm4.395-1.84c0-2.086-1.447-3.287-3.974-3.287h-3.249v11.137h2.19V199.4h.287l3.029,4.476h2.694l-3.538-4.692a2.969,2.969,0,0,0,2.56-3.158"
                      transform="translate(-322.075 -192.482)" fill="#0b161f"/>
            </g>
        </g>
        <g id="Mask_Group_15" data-name="Mask Group 15" clip-path="url(#clip-path)">
            <rect id="Rectangle_732-2" data-name="Rectangle 732" width="88" height="54" rx="4"
                  transform="translate(628 245)" fill="#f26e21"/>
        </g>
    </g>
</svg>
