<svg xmlns="http://www.w3.org/2000/svg" width="88" height="54" viewBox="0 0 88 54">
    <g id="ic_mastercard" transform="translate(-520 -245)">
        <g id="Group_2695" data-name="Group 2695" transform="translate(115 -9)">
            <rect id="Rectangle_732" data-name="Rectangle 732" width="88" height="54" rx="4"
                  transform="translate(405 254)" fill="#0c2770"/>
        </g>
        <g id="Group_2697" data-name="Group 2697" transform="translate(-6.837 -5.018)">
            <path id="Path_3408" data-name="Path 3408"
                  d="M233.944,141.494a18.283,18.283,0,1,1-36.566.009v-.009a18.283,18.283,0,1,1,36.566-.01S233.944,141.49,233.944,141.494Z"
                  transform="translate(366.984 135.851)" fill="#f7981d"/>
            <path id="Path_3409" data-name="Path 3409"
                  d="M69.454,123.193a18.323,18.323,0,1,0,12.419,31.871v0h0a18.112,18.112,0,0,0,1.857-1.962H79.987a17.583,17.583,0,0,1-1.364-1.886h6.459a18.477,18.477,0,0,0,1.066-1.962H77.558a17.985,17.985,0,0,1-.765-1.924h10.12a18.294,18.294,0,0,0,.941-5.812,18.479,18.479,0,0,0-.421-3.924H76.256a18.657,18.657,0,0,1,.521-1.924H86.9a18.387,18.387,0,0,0-.788-1.963H77.557a17.846,17.846,0,0,1,1.048-1.924h6.456a18.537,18.537,0,0,0-1.418-1.962h-3.6a16.971,16.971,0,0,1,1.833-1.85,18.185,18.185,0,0,0-12.3-4.776Z"
                  transform="translate(488.549 135.829)" fill="#cb2026"/>
            <g id="Group_2696" data-name="Group 2696" transform="translate(541.572 272.613)">
                <path id="Path_3410" data-name="Path 3410"
                      d="M184.438,217.559l.244-1.658c-.133,0-.329.057-.5.057-.677,0-.753-.361-.709-.628l.547-3.384h1.03l.249-1.835h-.97l.2-1.14h-1.947c-.042.043-1.149,6.415-1.149,7.19a1.447,1.447,0,0,0,1.551,1.653A5.113,5.113,0,0,0,184.438,217.559Z"
                      transform="translate(-161.315 -208.162)" fill="#fff"/>
                <path id="Path_3411" data-name="Path 3411"
                      d="M203.035,218.977a3.058,3.058,0,0,0,3.362,3.413,4.926,4.926,0,0,0,2.056-.321l.344-1.882a6.02,6.02,0,0,1-2.067.482c-2.09,0-1.724-1.563-1.724-1.563h3.957a14.143,14.143,0,0,0,.254-1.78,2.614,2.614,0,0,0-2.776-2.851C204.483,214.476,203.035,216.588,203.035,218.977Zm3.414-2.756c1.1,0,.9,1.237.9,1.337h-2.161C205.183,217.431,205.387,216.221,206.449,216.221Z"
                      transform="translate(-179.294 -212.742)" fill="#fff"/>
                <path id="Path_3412" data-name="Path 3412"
                      d="M270.988,213.546l.349-2.129a4.659,4.659,0,0,1-1.611.482,1.931,1.931,0,0,1-1.934-2.192c0-2.3,1.188-3.572,2.511-3.572a3.459,3.459,0,0,1,1.788.559l.317-2.065a6.961,6.961,0,0,0-2.192-.48c-2.248,0-4.435,1.952-4.435,5.624,0,2.431,1.182,4.04,3.5,4.04A8.95,8.95,0,0,0,270.988,213.546Z"
                      transform="translate(-231.508 -204.149)" fill="#fff"/>
                <path id="Path_3413" data-name="Path 3413"
                      d="M117.655,214.654a6.724,6.724,0,0,0-2.358.429l-.282,1.681a6.154,6.154,0,0,1,2.121-.343c.725,0,1.254.081,1.254.672a1.255,1.255,0,0,1-.065.491s-.571-.048-.836-.048c-1.683,0-3.452.72-3.452,2.892a1.85,1.85,0,0,0,1.879,2.1,2.529,2.529,0,0,0,2-.9l-.064.746h1.714l.765-5.374A2.3,2.3,0,0,0,117.655,214.654Zm.418,4.373c.037.329-.206,1.867-1.378,1.867a.711.711,0,0,1-.762-.738c0-.533.29-1.175,1.717-1.175A1.269,1.269,0,0,1,118.073,219.027Z"
                      transform="translate(-105.238 -212.89)" fill="#fff"/>
                <path id="Path_3414" data-name="Path 3414"
                      d="M151.536,222.551c.438,0,2.944.112,2.944-2.479,0-2.423-2.32-1.945-2.32-2.919,0-.483.378-.638,1.069-.638.274,0,1.33.089,1.33.089l.246-1.724a9.1,9.1,0,0,0-1.8-.152c-1.442,0-2.9.574-2.9,2.546,0,2.236,2.437,2.009,2.437,2.95,0,.628-.682.68-1.207.68a6.329,6.329,0,0,1-1.728-.3l-.259,1.7A6.084,6.084,0,0,0,151.536,222.551Z"
                      transform="translate(-134.624 -212.952)" fill="#fff"/>
                <path id="Path_3415" data-name="Path 3415"
                      d="M365.235,205.424l-.419,2.611a2.573,2.573,0,0,0-1.879-1.013c-1.784,0-3.271,2.155-3.271,4.631,0,1.6.792,3.163,2.414,3.163a2.428,2.428,0,0,0,1.812-.815l-.085.7H365.7l1.488-9.277Zm-.9,5.093c0,1.03-.51,2.4-1.565,2.4-.7,0-1.028-.589-1.028-1.514,0-1.511.677-2.511,1.531-2.511C363.972,208.9,364.332,209.38,364.332,210.517Z"
                      transform="translate(-309.631 -205.207)" fill="#fff"/>
                <path id="Path_3416" data-name="Path 3416"
                      d="M63.495,214.7l1.187-7,.173,7H66.2l2.5-7-1.109,7h1.993l1.536-9.287H68.035l-1.919,5.7-.1-5.7h-2.84L61.619,214.7Z"
                      transform="translate(-61.619 -205.197)" fill="#fff"/>
                <path id="Path_3417" data-name="Path 3417"
                      d="M241.546,222.842c.567-3.228.672-5.851,2.025-5.373a7.561,7.561,0,0,1,.722-2.261,2.023,2.023,0,0,0-.376-.026c-.87,0-1.516,1.193-1.516,1.193l.172-1.1H240.76l-1.213,7.562Z"
                      transform="translate(-209.677 -213.33)" fill="#fff"/>
                <path id="Path_3418" data-name="Path 3418"
                      d="M305.618,214.654a6.718,6.718,0,0,0-2.358.429l-.281,1.681a6.139,6.139,0,0,1,2.121-.343c.724,0,1.255.081,1.255.672a1.244,1.244,0,0,1-.065.491s-.571-.048-.838-.048c-1.683,0-3.45.72-3.45,2.892a1.85,1.85,0,0,0,1.879,2.1,2.523,2.523,0,0,0,2-.9l-.063.746h1.715l.765-5.374A2.3,2.3,0,0,0,305.618,214.654Zm.418,4.373c.037.329-.2,1.867-1.379,1.867a.71.71,0,0,1-.76-.738c0-.533.29-1.175,1.714-1.175A1.273,1.273,0,0,1,306.036,219.027Z"
                      transform="translate(-261.646 -212.89)" fill="#fff"/>
                <path id="Path_3419" data-name="Path 3419"
                      d="M338.893,222.842c.567-3.228.672-5.851,2.025-5.373a7.511,7.511,0,0,1,.724-2.261,2.053,2.053,0,0,0-.376-.026c-.872,0-1.517,1.193-1.517,1.193l.173-1.1h-1.814l-1.214,7.561h2Z"
                      transform="translate(-290.682 -213.33)" fill="#fff"/>
            </g>
        </g>
    </g>
</svg>
