<svg xmlns="http://www.w3.org/2000/svg" width="88" height="54" viewBox="0 0 88 54">
    <g id="ic_visa" transform="translate(-405 -254)">
        <rect id="Rectangle_732" data-name="Rectangle 732" width="88" height="54" rx="4" transform="translate(405 254)"
              fill="#f6f6f6"/>
        <path id="Rectangle_733" data-name="Rectangle 733"
              d="M4,0H84a4,4,0,0,1,4,4v8a0,0,0,0,1,0,0H0a0,0,0,0,1,0,0V4A4,4,0,0,1,4,0Z" transform="translate(405 254)"
              fill="#1a1f71"/>
        <path id="Rectangle_734" data-name="Rectangle 734"
              d="M0,0H88a0,0,0,0,1,0,0V8a4,4,0,0,1-4,4H4A4,4,0,0,1,0,8V0A0,0,0,0,1,0,0Z" transform="translate(405 296)"
              fill="#f79f1a"/>
        <g id="Group_2693" data-name="Group 2693" transform="translate(-3216.502 -6921.208)">
            <path id="Path_3401" data-name="Path 3401"
                  d="M41.057,198.4l-1.526-7.322a1.82,1.82,0,0,0-1.969-1.35h-7l-.062.335C35.952,191.388,39.558,194.575,41.057,198.4Z"
                  transform="translate(3607 7003.612)" fill="#f79f1a"/>
            <path id="Path_3402" data-name="Path 3402" d="M190.844,190.892h-4.521L183.5,207.463h4.514Z"
                  transform="translate(3473.427 7002.6)" fill="#1a1f71"/>
            <path id="Path_3403" data-name="Path 3403"
                  d="M74.661,207.524l7.111-16.543H76.986l-4.423,11.3-.472-1.707a17.681,17.681,0,0,0-6.255-6.868L69.88,207.53Z"
                  transform="translate(3576.152 7002.522)" fill="#1a1f71"/>
            <path id="Path_3404" data-name="Path 3404"
                  d="M254.251,200.1c.017-1.881-1.191-3.316-3.794-4.5-1.582-.766-2.546-1.276-2.535-2.053,0-.686.817-1.424,2.586-1.424a8.339,8.339,0,0,1,3.38.635l.409.187.613-3.59a11.71,11.71,0,0,0-4.049-.692c-4.463,0-7.605,2.246-7.634,5.467-.028,2.382,2.246,3.709,3.959,4.5,1.758.809,2.348,1.327,2.336,2.053-.011,1.11-1.4,1.616-2.7,1.616a9.477,9.477,0,0,1-4.254-.869l-.578-.265-.635,3.713a14.25,14.25,0,0,0,5.03.88C251.132,205.758,254.217,203.54,254.251,200.1Z"
                  transform="translate(3422.915 7004.549)" fill="#1a1f71"/>
            <path id="Path_3405" data-name="Path 3405"
                  d="M346.079,205.1l5.785.006c.136.577.55,2.484.55,2.484H356.6l-3.658-16.56h-3.488a2.247,2.247,0,0,0-2.365,1.372l-6.709,15.188h4.747S345.9,205.545,346.079,205.1Zm3.1-8.025c-.022.045.375-.958.6-1.582l.306,1.429s.862,3.959,1.044,4.787h-3.749C347.752,200.753,349.175,197.072,349.175,197.072Z"
                  transform="translate(3336.458 7002.481)" fill="#1a1f71"/>
        </g>
    </g>
</svg>
